<svg width="931" height="630" viewBox="0 0 931 630" fill="none" xmlns="http://www.w3.org/2000/svg">
<path d="M109.893 144.465H107.423V276.583H109.893V144.465Z" fill="#94A3B8"/>
<path d="M109.893 315.911H107.423V432.162H109.893V315.911Z" fill="#94A3B8"/>
<path d="M295.105 450.683H103.719V453.152H295.105V450.683Z" fill="#94A3B8"/>
<path d="M24.6954 484.021H22.2259V588.974H24.6954V484.021Z" fill="#94A3B8"/>
<path d="M334.617 607.496H44.4513V609.965H334.617V607.496Z" fill="#94A3B8"/>
<path d="M576.628 60.5025H574.158V185.212H576.628V60.5025Z" fill="#94A3B8"/>
<path d="M555.637 204.968H374.087V207.438H555.637V204.968Z" fill="#94A3B8"/>
<path d="M355.608 224.724H353.138V391.415H355.608V224.724Z" fill="#94A3B8"/>
<path d="M108.658 317.33C104.507 317.33 100.448 316.099 96.9963 313.792C93.5444 311.486 90.8539 308.208 89.2652 304.372C87.6765 300.537 87.2608 296.316 88.0707 292.244C88.8806 288.172 90.8798 284.432 93.8154 281.497C96.751 278.561 100.491 276.562 104.563 275.752C108.635 274.942 112.855 275.358 116.691 276.946C120.526 278.535 123.805 281.226 126.111 284.677C128.418 288.129 129.649 292.188 129.649 296.339C129.643 301.904 127.429 307.24 123.494 311.175C119.559 315.11 114.223 317.324 108.658 317.33V317.33ZM108.658 277.818C104.995 277.818 101.414 278.904 98.3683 280.939C95.3225 282.975 92.9485 285.867 91.5467 289.252C90.1449 292.636 89.7781 296.36 90.4927 299.953C91.2074 303.545 92.9714 306.846 95.5616 309.436C98.1518 312.026 101.452 313.79 105.045 314.505C108.638 315.219 112.362 314.853 115.746 313.451C119.13 312.049 122.023 309.675 124.058 306.629C126.093 303.583 127.179 300.002 127.179 296.339C127.174 291.429 125.221 286.721 121.749 283.249C118.276 279.777 113.569 277.824 108.658 277.818V277.818Z" fill="#94A3B8"/>
<path d="M24.6953 629.721C20.5438 629.721 16.4854 628.49 13.0335 626.184C9.5816 623.877 6.89117 620.599 5.30243 616.763C3.71369 612.928 3.298 608.707 4.10793 604.635C4.91786 600.564 6.91706 596.823 9.85266 593.888C12.7883 590.952 16.5284 588.953 20.6002 588.143C24.672 587.333 28.8926 587.749 32.7281 589.338C36.5637 590.926 39.842 593.617 42.1485 597.069C44.455 600.521 45.686 604.579 45.686 608.73C45.6798 614.296 43.4663 619.631 39.5311 623.566C35.596 627.501 30.2605 629.715 24.6953 629.721V629.721ZM24.6953 590.209C21.0322 590.209 17.4513 591.295 14.4055 593.331C11.3597 595.366 8.98576 598.258 7.58393 601.643C6.18211 605.027 5.81534 608.751 6.52998 612.344C7.24463 615.937 9.00858 619.237 11.5988 621.827C14.1891 624.417 17.4893 626.181 21.082 626.896C24.6748 627.61 28.3988 627.244 31.7831 625.842C35.1674 624.44 38.06 622.066 40.0952 619.02C42.1303 615.974 43.2166 612.394 43.2166 608.73C43.2111 603.82 41.258 599.112 37.7858 595.64C34.3136 592.168 29.6058 590.215 24.6953 590.209V590.209Z" fill="#94A3B8"/>
<path d="M109.893 471.674C120.803 471.674 129.649 462.829 129.649 451.918C129.649 441.007 120.803 432.162 109.893 432.162C98.9816 432.162 90.1366 441.007 90.1366 451.918C90.1366 462.829 98.9816 471.674 109.893 471.674Z" fill="#F87171"/>
<path d="M824.812 295.105H619.844V297.574H824.812V295.105Z" fill="#94A3B8"/>
<path d="M601.323 315.911H598.853V432.162H601.323V315.911Z" fill="#94A3B8"/>
<path d="M579.097 450.683H414.876V453.152H579.097V450.683Z" fill="#94A3B8"/>
<path d="M874.202 461.796H703.807V464.265H874.202V461.796Z" fill="#94A3B8"/>
<path d="M686.52 484.021H684.051V588.974H686.52V484.021Z" fill="#94A3B8"/>
<path d="M664.295 607.496H374.129V609.965H664.295V607.496Z" fill="#94A3B8"/>
<path d="M355.608 512.42H353.138V588.975H355.608V512.42Z" fill="#94A3B8"/>
<path d="M600.087 316.095C610.998 316.095 619.843 307.25 619.843 296.339C619.843 285.429 610.998 276.583 600.087 276.583C589.177 276.583 580.331 285.429 580.331 296.339C580.331 307.25 589.177 316.095 600.087 316.095Z" fill="#F87171"/>
<path d="M575.393 225.959C571.241 225.959 567.183 224.728 563.731 222.421C560.279 220.115 557.589 216.836 556 213.001C554.411 209.165 553.996 204.945 554.805 200.873C555.615 196.801 557.615 193.061 560.55 190.125C563.486 187.19 567.226 185.19 571.298 184.381C575.37 183.571 579.59 183.986 583.426 185.575C587.261 187.164 590.539 189.854 592.846 193.306C595.152 196.758 596.384 200.816 596.384 204.968C596.377 210.533 594.164 215.869 590.229 219.804C586.293 223.739 580.958 225.952 575.393 225.959V225.959ZM575.393 186.447C571.73 186.447 568.149 187.533 565.103 189.568C562.057 191.603 559.683 194.496 558.281 197.88C556.88 201.264 556.513 204.988 557.227 208.581C557.942 212.174 559.706 215.474 562.296 218.064C564.887 220.655 568.187 222.419 571.78 223.133C575.372 223.848 579.096 223.481 582.481 222.079C585.865 220.677 588.758 218.304 590.793 215.258C592.828 212.212 593.914 208.631 593.914 204.968C593.909 200.057 591.956 195.35 588.483 191.877C585.011 188.405 580.303 186.452 575.393 186.447V186.447Z" fill="#94A3B8"/>
<path d="M354.373 225.959C350.221 225.959 346.163 224.728 342.711 222.421C339.259 220.115 336.569 216.836 334.98 213.001C333.391 209.165 332.976 204.945 333.786 200.873C334.596 196.801 336.595 193.061 339.53 190.125C342.466 187.19 346.206 185.19 350.278 184.381C354.35 183.571 358.57 183.986 362.406 185.575C366.241 187.164 369.52 189.854 371.826 193.306C374.133 196.758 375.364 200.816 375.364 204.968C375.357 210.533 373.144 215.869 369.209 219.804C365.274 223.739 359.938 225.952 354.373 225.959V225.959ZM354.373 186.447C350.71 186.447 347.129 187.533 344.083 189.568C341.037 191.603 338.663 194.496 337.262 197.88C335.86 201.264 335.493 204.988 336.208 208.581C336.922 212.174 338.686 215.474 341.277 218.064C343.867 220.655 347.167 222.419 350.76 223.133C354.352 223.848 358.076 223.481 361.461 222.079C364.845 220.677 367.738 218.304 369.773 215.258C371.808 212.212 372.894 208.631 372.894 204.968C372.889 200.057 370.936 195.35 367.463 191.877C363.991 188.405 359.283 186.452 354.373 186.447V186.447Z" fill="#94A3B8"/>
<path d="M684.051 485.256C679.899 485.256 675.841 484.025 672.389 481.718C668.937 479.412 666.247 476.133 664.658 472.298C663.069 468.462 662.653 464.242 663.463 460.17C664.273 456.098 666.272 452.358 669.208 449.422C672.144 446.487 675.884 444.488 679.956 443.678C684.027 442.868 688.248 443.283 692.083 444.872C695.919 446.461 699.197 449.151 701.504 452.603C703.81 456.055 705.041 460.113 705.041 464.265C705.035 469.83 702.822 475.166 698.886 479.101C694.951 483.036 689.616 485.249 684.051 485.256V485.256ZM684.051 445.744C680.387 445.744 676.807 446.83 673.761 448.865C670.715 450.9 668.341 453.793 666.939 457.177C665.537 460.562 665.171 464.286 665.885 467.878C666.6 471.471 668.364 474.771 670.954 477.361C673.544 479.952 676.845 481.716 680.437 482.43C684.03 483.145 687.754 482.778 691.138 481.376C694.523 479.975 697.415 477.601 699.45 474.555C701.486 471.509 702.572 467.928 702.572 464.265C702.566 459.355 700.613 454.647 697.141 451.175C693.669 447.702 688.961 445.749 684.051 445.744V445.744Z" fill="#94A3B8"/>
<path d="M684.05 628.487C694.961 628.487 703.806 619.642 703.806 608.731C703.806 597.82 694.961 588.975 684.05 588.975C673.139 588.975 664.294 597.82 664.294 608.731C664.294 619.642 673.139 628.487 684.05 628.487Z" fill="#F87171"/>
<path d="M354.373 629.721C350.221 629.721 346.163 628.49 342.711 626.184C339.259 623.877 336.569 620.599 334.98 616.763C333.391 612.928 332.976 608.707 333.786 604.635C334.596 600.564 336.595 596.823 339.53 593.888C342.466 590.952 346.206 588.953 350.278 588.143C354.35 587.333 358.57 587.749 362.406 589.338C366.241 590.926 369.52 593.617 371.826 597.069C374.133 600.521 375.364 604.579 375.364 608.73C375.357 614.296 373.144 619.631 369.209 623.566C365.274 627.501 359.938 629.715 354.373 629.721V629.721ZM354.373 590.209C350.71 590.209 347.129 591.295 344.083 593.331C341.037 595.366 338.663 598.258 337.262 601.643C335.86 605.027 335.493 608.751 336.208 612.344C336.922 615.937 338.686 619.237 341.277 621.827C343.867 624.417 347.167 626.181 350.76 626.896C354.352 627.61 358.076 627.244 361.461 625.842C364.845 624.44 367.738 622.066 369.773 619.02C371.808 615.974 372.894 612.394 372.894 608.73C372.889 603.82 370.936 599.112 367.463 595.64C363.991 592.168 359.283 590.215 354.373 590.209V590.209Z" fill="#94A3B8"/>
<path d="M598.853 472.908C594.702 472.908 590.643 471.677 587.191 469.371C583.739 467.064 581.049 463.786 579.46 459.95C577.871 456.115 577.456 451.894 578.266 447.822C579.076 443.751 581.075 440.01 584.01 437.075C586.946 434.139 590.686 432.14 594.758 431.33C598.83 430.52 603.05 430.936 606.886 432.525C610.721 434.113 614 436.804 616.306 440.256C618.613 443.708 619.844 447.766 619.844 451.917C619.838 457.483 617.624 462.818 613.689 466.753C609.754 470.689 604.418 472.902 598.853 472.908V472.908ZM598.853 433.396C595.19 433.396 591.609 434.483 588.563 436.518C585.517 438.553 583.144 441.445 581.742 444.83C580.34 448.214 579.973 451.938 580.688 455.531C581.402 459.124 583.166 462.424 585.757 465.014C588.347 467.604 591.647 469.368 595.24 470.083C598.833 470.797 602.557 470.431 605.941 469.029C609.325 467.627 612.218 465.253 614.253 462.207C616.288 459.162 617.374 455.581 617.374 451.917C617.369 447.007 615.416 442.299 611.944 438.827C608.471 435.355 603.764 433.402 598.853 433.396V433.396Z" fill="#94A3B8"/>
<path d="M24.695 422.284C19.8108 422.284 15.0363 423.732 10.9752 426.446C6.91413 429.159 3.74888 433.016 1.87978 437.528C0.0106789 442.041 -0.478335 447.006 0.474525 451.796C1.42739 456.587 3.77935 460.987 7.23301 464.441C10.6867 467.894 15.0869 470.246 19.8772 471.199C24.6676 472.152 29.6329 471.663 34.1453 469.794C38.6577 467.925 42.5145 464.76 45.2281 460.699C47.9416 456.637 49.3899 451.863 49.3899 446.979C49.3708 440.435 46.7628 434.165 42.1358 429.538C37.5087 424.911 31.2386 422.303 24.695 422.284V422.284ZM24.695 429.692C26.1602 429.692 27.5926 430.127 28.8109 430.941C30.0292 431.755 30.9788 432.912 31.5395 434.266C32.1002 435.619 32.2469 437.109 31.9611 438.546C31.6752 439.983 30.9696 441.303 29.9336 442.339C28.8975 443.375 27.5774 444.081 26.1403 444.367C24.7032 444.653 23.2136 444.506 21.8598 443.945C20.5061 443.385 19.3491 442.435 18.535 441.217C17.721 439.998 17.2865 438.566 17.2865 437.101C17.293 435.138 18.0757 433.257 19.4636 431.869C20.8515 430.481 22.7321 429.699 24.695 429.692V429.692ZM24.695 465.357C21.7683 465.344 18.8891 464.617 16.3071 463.239C13.7251 461.861 11.5183 459.874 9.87798 457.45C9.99672 452.511 19.756 449.792 24.695 449.792C29.6339 449.792 39.3932 452.511 39.5119 457.45C37.8698 459.872 35.6625 461.858 33.0809 463.236C30.4994 464.613 27.6211 465.342 24.695 465.357V465.357Z" fill="#94A3B8"/>
<path d="M109.893 85.1976C105.008 85.1976 100.234 86.6459 96.1728 89.3594C92.1117 92.073 88.9465 95.9298 87.0774 100.442C85.2082 104.955 84.7192 109.92 85.6721 114.71C86.625 119.501 88.9769 123.901 92.4306 127.355C95.8842 130.808 100.284 133.16 105.075 134.113C109.865 135.066 114.83 134.577 119.343 132.708C123.855 130.839 127.712 127.673 130.426 123.612C133.139 119.551 134.587 114.777 134.587 109.893C134.568 103.349 131.96 97.0788 127.333 92.4517C122.706 87.8247 116.436 85.2168 109.893 85.1976V85.1976ZM109.893 92.6061C111.358 92.6061 112.79 93.0406 114.008 93.8546C115.227 94.6687 116.176 95.8258 116.737 97.1795C117.298 98.5332 117.445 100.023 117.159 101.46C116.873 102.897 116.167 104.217 115.131 105.253C114.095 106.289 112.775 106.995 111.338 107.281C109.901 107.567 108.411 107.42 107.057 106.859C105.704 106.298 104.547 105.349 103.733 104.131C102.919 102.912 102.484 101.48 102.484 100.015C102.491 98.0517 103.273 96.1712 104.661 94.7832C106.049 93.3953 107.93 92.6126 109.893 92.6061V92.6061ZM109.893 128.271C106.966 128.258 104.087 127.531 101.505 126.153C98.9227 124.775 96.7158 122.788 95.0756 120.364C95.1943 115.425 104.954 112.706 109.893 112.706C114.832 112.706 124.591 115.425 124.709 120.364C123.067 122.786 120.86 124.772 118.279 126.149C115.697 127.527 112.819 128.255 109.893 128.271V128.271Z" fill="#94A3B8"/>
<path d="M575.393 0C570.508 0 565.734 1.44834 561.673 4.16186C557.612 6.87537 554.446 10.7322 552.577 15.2446C550.708 19.757 550.219 24.7224 551.172 29.5127C552.125 34.3031 554.477 38.7033 557.931 42.1569C561.384 45.6106 565.784 47.9626 570.575 48.9154C575.365 49.8683 580.33 49.3792 584.843 47.5101C589.355 45.641 593.212 42.4758 595.926 38.4147C598.639 34.3537 600.088 29.5792 600.088 24.695C600.068 18.1513 597.46 11.8812 592.833 7.25414C588.206 2.62709 581.936 0.0191539 575.393 0V0ZM575.393 7.40849C576.858 7.40849 578.29 7.84299 579.508 8.65705C580.727 9.4711 581.676 10.6281 582.237 11.9819C582.798 13.3356 582.945 14.8252 582.659 16.2623C582.373 17.6994 581.667 19.0195 580.631 20.0556C579.595 21.0917 578.275 21.7973 576.838 22.0831C575.401 22.369 573.911 22.2223 572.557 21.6615C571.204 21.1008 570.047 20.1512 569.233 18.9329C568.419 17.7146 567.984 16.2822 567.984 14.817C567.991 12.8541 568.773 10.9736 570.161 9.58562C571.549 8.19768 573.43 7.41504 575.393 7.40849V7.40849ZM575.393 43.0737C572.466 43.0604 569.587 42.3332 567.005 40.9553C564.423 39.5774 562.216 37.5904 560.576 35.1666C560.694 30.2276 570.454 27.5088 575.393 27.5088C580.332 27.5088 590.091 30.2276 590.21 35.1666C588.567 37.5885 586.36 39.5742 583.779 40.9519C581.197 42.3295 578.319 43.0578 575.393 43.0737Z" fill="#94A3B8"/>
<path d="M859.385 270.41C854.5 270.41 849.726 271.858 845.665 274.572C841.604 277.285 838.438 281.142 836.569 285.654C834.7 290.167 834.211 295.132 835.164 299.922C836.117 304.713 838.469 309.113 841.923 312.567C845.376 316.02 849.776 318.372 854.567 319.325C859.357 320.278 864.323 319.789 868.835 317.92C873.347 316.051 877.204 312.886 879.918 308.825C882.631 304.763 884.08 299.989 884.08 295.105C884.06 288.561 881.452 282.291 876.825 277.664C872.198 273.037 865.928 270.429 859.385 270.41ZM859.385 277.818C860.85 277.818 862.282 278.253 863.5 279.067C864.719 279.881 865.668 281.038 866.229 282.392C866.79 283.745 866.936 285.235 866.651 286.672C866.365 288.109 865.659 289.429 864.623 290.465C863.587 291.501 862.267 292.207 860.83 292.493C859.393 292.779 857.903 292.632 856.549 292.071C855.196 291.511 854.039 290.561 853.225 289.343C852.41 288.124 851.976 286.692 851.976 285.227C851.983 283.264 852.765 281.383 854.153 279.995C855.541 278.607 857.422 277.825 859.385 277.818ZM859.385 313.483C856.458 313.47 853.579 312.743 850.997 311.365C848.415 309.987 846.208 308 844.568 305.576C844.686 300.637 854.446 297.919 859.385 297.919C864.324 297.919 874.083 300.637 874.202 305.576C872.559 307.998 870.352 309.984 867.771 311.362C865.189 312.739 862.311 313.468 859.385 313.483V313.483Z" fill="#94A3B8"/>
<path d="M906.305 437.101C901.421 437.101 896.646 438.549 892.585 441.263C888.524 443.976 885.359 447.833 883.49 452.345C881.621 456.858 881.132 461.823 882.085 466.613C883.037 471.404 885.389 475.804 888.843 479.258C892.297 482.711 896.697 485.063 901.487 486.016C906.278 486.969 911.243 486.48 915.755 484.611C920.268 482.742 924.125 479.577 926.838 475.515C929.552 471.454 931 466.68 931 461.796C930.981 455.252 928.373 448.982 923.746 444.355C919.119 439.728 912.849 437.12 906.305 437.101V437.101ZM906.305 444.509C907.77 444.509 909.203 444.944 910.421 445.758C911.639 446.572 912.589 447.729 913.15 449.083C913.71 450.436 913.857 451.926 913.571 453.363C913.285 454.8 912.58 456.12 911.544 457.156C910.507 458.192 909.187 458.898 907.75 459.184C906.313 459.47 904.824 459.323 903.47 458.762C902.116 458.202 900.959 457.252 900.145 456.034C899.331 454.815 898.897 453.383 898.897 451.918C898.903 449.955 899.686 448.074 901.074 446.686C902.462 445.298 904.342 444.516 906.305 444.509V444.509ZM906.305 480.174C903.378 480.161 900.499 479.434 897.917 478.056C895.335 476.678 893.128 474.691 891.488 472.267C891.607 467.328 901.366 464.609 906.305 464.609C911.244 464.609 921.003 467.328 921.122 472.267C919.48 474.689 917.273 476.675 914.691 478.053C912.109 479.43 909.231 480.159 906.305 480.174V480.174Z" fill="#94A3B8"/>
<path d="M355.951 436.689L353.421 446.832C356.289 447.547 365.13 450.464 366.562 444.724C368.055 438.739 358.819 437.404 355.951 436.689Z" fill="#F87171"/>
<path d="M352.145 451.952L349.355 463.136C352.798 463.992 363.421 467.402 364.991 461.093C366.632 454.514 355.589 452.811 352.145 451.952Z" fill="#F87171"/>
<path fill-rule="evenodd" clip-rule="evenodd" d="M338.309 405.433C347.502 402.132 357.468 401.632 366.947 403.995C373.24 405.563 379.164 408.356 384.378 412.214C389.593 416.072 393.996 420.92 397.336 426.48C400.677 432.04 402.89 438.203 403.848 444.619C404.806 451.034 404.49 457.575 402.92 463.868C400.556 473.347 395.435 481.911 388.204 488.478C380.973 495.046 371.957 499.322 362.296 500.765C352.635 502.209 342.763 500.755 333.928 496.588C325.093 492.421 317.692 485.727 312.662 477.354C307.631 468.981 305.196 459.304 305.665 449.547C306.134 439.79 309.485 430.391 315.296 422.539C321.106 414.687 329.115 408.734 338.309 405.433Z" fill="#F87171"/>
<path d="M370.334 455.111C368.944 453.283 367.115 451.835 365.017 450.902C362.429 449.811 359.757 448.933 357.026 448.277V432.665C361.223 433.298 365.16 435.093 368.39 437.846L371.559 431.09C369.736 429.467 367.644 428.174 365.376 427.27C362.863 426.252 360.224 425.575 357.532 425.258V417.345H350.192V425.335C347.358 425.654 344.624 426.572 342.172 428.028C339.958 429.339 338.093 431.167 336.738 433.355C335.445 435.491 334.775 437.946 334.804 440.442C334.678 443.147 335.461 445.817 337.03 448.024C338.474 449.936 340.381 451.448 342.571 452.418C345.2 453.541 347.918 454.442 350.698 455.111V470.072C345.745 469.698 341.025 467.815 337.176 464.676L334.007 471.442C336.159 473.222 338.607 474.61 341.239 475.545C344.123 476.577 347.136 477.205 350.192 477.411V485.256H357.532V477.265C361.608 476.82 365.431 475.067 368.429 472.269C369.749 471.003 370.792 469.476 371.491 467.786C372.191 466.096 372.532 464.279 372.492 462.45C372.614 459.831 371.854 457.247 370.334 455.111V455.111ZM350.698 446.625C348.91 446.082 347.248 445.19 345.808 444C345.237 443.492 344.786 442.865 344.487 442.162C344.188 441.46 344.048 440.699 344.078 439.936C344.025 438.205 344.661 436.523 345.847 435.261C347.162 433.936 348.858 433.056 350.698 432.743V446.625ZM361.634 467.311C360.394 468.583 358.779 469.424 357.026 469.712V456.841C358.702 457.291 360.269 458.075 361.634 459.145C362.151 459.587 362.563 460.14 362.837 460.763C363.111 461.385 363.242 462.062 363.218 462.742C363.286 464.41 362.72 466.043 361.634 467.311V467.311Z" fill="white"/>
</svg>
